<?xml version="1.0" encoding="UTF-8" standalone="no"?>
<svg width="512" height="512" viewBox="0 0 512 512" version="1.1" xmlns="http://www.w3.org/2000/svg">
  <circle cx="256" cy="256" r="256" fill="#0A1128"/>
  <g transform="translate(100, 100) scale(0.6)">
    <!-- Moon shape -->
    <path d="M256,56 C370.875,56 464,149.125 464,264 C464,378.875 370.875,472 256,472 C141.125,472 48,378.875 48,264 C48,149.125 141.125,56 256,56 Z" fill="#0A1128"/>
    <path d="M256,56 C370.875,56 464,149.125 464,264 C464,378.875 370.875,472 256,472 C256,472 256,56 256,56 Z" fill="#050A14"/>
    
    <!-- Stars -->
    <circle cx="150" cy="180" r="8" fill="#00A6FB"/>
    <circle cx="200" cy="120" r="6" fill="#9A8FBF"/>
    <circle cx="300" cy="150" r="10" fill="#00A6FB"/>
    <circle cx="350" cy="200" r="5" fill="#9A8FBF"/>
    <circle cx="180" cy="300" r="7" fill="#00A6FB"/>
    <circle cx="250" cy="350" r="6" fill="#9A8FBF"/>
    <circle cx="320" cy="280" r="8" fill="#00A6FB"/>
    
    <!-- Building silhouette -->
    <path d="M120,400 L160,400 L160,300 L200,300 L200,400 L240,400 L240,250 L280,250 L280,400 L320,400 L320,320 L360,320 L360,400 L400,400 L400,400 L120,400 Z" fill="#4A306D"/>
    
    <!-- Windows -->
    <rect x="130" y="320" width="10" height="10" fill="#00A6FB"/>
    <rect x="130" y="340" width="10" height="10" fill="#00A6FB"/>
    <rect x="130" y="360" width="10" height="10" fill="#00A6FB"/>
    <rect x="130" y="380" width="10" height="10" fill="#00A6FB"/>
    
    <rect x="180" y="320" width="10" height="10" fill="#00A6FB"/>
    <rect x="180" y="340" width="10" height="10" fill="#00A6FB"/>
    <rect x="180" y="360" width="10" height="10" fill="#00A6FB"/>
    <rect x="180" y="380" width="10" height="10" fill="#00A6FB"/>
    
    <rect x="250" y="270" width="10" height="10" fill="#00A6FB"/>
    <rect x="250" y="290" width="10" height="10" fill="#00A6FB"/>
    <rect x="250" y="310" width="10" height="10" fill="#00A6FB"/>
    <rect x="250" y="330" width="10" height="10" fill="#00A6FB"/>
    <rect x="250" y="350" width="10" height="10" fill="#00A6FB"/>
    <rect x="250" y="370" width="10" height="10" fill="#00A6FB"/>
    <rect x="250" y="390" width="10" height="10" fill="#00A6FB"/>
    
    <rect x="330" y="340" width="10" height="10" fill="#00A6FB"/>
    <rect x="330" y="360" width="10" height="10" fill="#00A6FB"/>
    <rect x="330" y="380" width="10" height="10" fill="#00A6FB"/>
    
    <rect x="380" y="340" width="10" height="10" fill="#00A6FB"/>
    <rect x="380" y="360" width="10" height="10" fill="#00A6FB"/>
    <rect x="380" y="380" width="10" height="10" fill="#00A6FB"/>
  </g>
</svg>
